#include <Chrono.h>

#define NOTE_B0  31
#define NOTE_C1  33
#define NOTE_CS1 35
#define NOTE_D1  37
#define NOTE_DS1 39
#define NOTE_E1  41
#define NOTE_F1  44
#define NOTE_FS1 46
#define NOTE_G1  49
#define NOTE_GS1 52
#define NOTE_A1  55
#define NOTE_AS1 58
#define NOTE_B1  62
#define NOTE_C2  65
#define NOTE_CS2 69
#define NOTE_D2  73
#define NOTE_DS2 78
#define NOTE_E2  82
#define NOTE_F2  87
#define NOTE_FS2 93
#define NOTE_G2  98
#define NOTE_GS2 104
#define NOTE_A2  110
#define NOTE_AS2 117
#define NOTE_B2  123
#define NOTE_C3  131
#define NOTE_CS3 139
#define NOTE_D3  147
#define NOTE_DS3 156
#define NOTE_E3  165
#define NOTE_F3  175
#define NOTE_FS3 185
#define NOTE_G3  196
#define NOTE_GS3 208
#define NOTE_A3  220
#define NOTE_AS3 233
#define NOTE_B3  247
#define NOTE_C4  262
#define NOTE_CS4 277
#define NOTE_D4  294
#define NOTE_DS4 311
#define NOTE_E4  330
#define NOTE_F4  349
#define NOTE_FS4 370
#define NOTE_G4  392
#define NOTE_GS4 415
#define NOTE_A4  440
#define NOTE_AS4 466
#define NOTE_B4  494
#define NOTE_C5  523
#define NOTE_CS5 554
#define NOTE_D5  587
#define NOTE_DS5 622
#define NOTE_E5  659
#define NOTE_F5  698
#define NOTE_FS5 740
#define NOTE_G5  784
#define NOTE_GS5 831
#define NOTE_A5  880
#define NOTE_AS5 932
#define NOTE_B5  988
#define NOTE_C6  1047
#define NOTE_CS6 1109
#define NOTE_D6  1175
#define NOTE_DS6 1245
#define NOTE_E6  1319
#define NOTE_F6  1397
#define NOTE_FS6 1480
#define NOTE_G6  1568
#define NOTE_GS6 1661
#define NOTE_A6  1760
#define NOTE_AS6 1865
#define NOTE_B6  1976
#define NOTE_C7  2093
#define NOTE_CS7 2217
#define NOTE_D7  2349
#define NOTE_DS7 2489
#define NOTE_E7  2637
#define NOTE_F7  2794
#define NOTE_FS7 2960
#define NOTE_G7  3136
#define NOTE_GS7 3322
#define NOTE_A7  3520
#define NOTE_AS7 3729
#define NOTE_B7  3951
#define NOTE_C8  4186
#define NOTE_CS8 4435
#define NOTE_D8  4699
#define NOTE_DS8 4978
#define REST      0

struct Song {
  int tempo;
  int* melody;
  int melodySize;
};

int takeOnMeMelody[] = {
  // Take on me, by A-ha
  // Score available at https://musescore.com/user/27103612/scores/4834399
  // Arranged by Edward Truong

  NOTE_FS5,8, NOTE_FS5,8,NOTE_D5,8, NOTE_B4,8, REST,8, NOTE_B4,8, REST,8, NOTE_E5,8, 
  REST,8, NOTE_E5,8, REST,8, NOTE_E5,8, NOTE_GS5,8, NOTE_GS5,8, NOTE_A5,8, NOTE_B5,8,
  NOTE_A5,8, NOTE_A5,8, NOTE_A5,8, NOTE_E5,8, REST,8, NOTE_D5,8, REST,8, NOTE_FS5,8, 
  REST,8, NOTE_FS5,8, REST,8, NOTE_FS5,8, NOTE_E5,8, NOTE_E5,8, NOTE_FS5,8, NOTE_E5,8,
  NOTE_FS5,8, NOTE_FS5,8,NOTE_D5,8, NOTE_B4,8, REST,8, NOTE_B4,8, REST,8, NOTE_E5,8, 
  
  REST,8, NOTE_E5,8, REST,8, NOTE_E5,8, NOTE_GS5,8, NOTE_GS5,8, NOTE_A5,8, NOTE_B5,8,
  NOTE_A5,8, NOTE_A5,8, NOTE_A5,8, NOTE_E5,8, REST,8, NOTE_D5,8, REST,8, NOTE_FS5,8, 
  REST,8, NOTE_FS5,8, REST,8, NOTE_FS5,8, NOTE_E5,8, NOTE_E5,8, NOTE_FS5,8, NOTE_E5,8,
  NOTE_FS5,8, NOTE_FS5,8,NOTE_D5,8, NOTE_B4,8, REST,8, NOTE_B4,8, REST,8, NOTE_E5,8, 
  REST,8, NOTE_E5,8, REST,8, NOTE_E5,8, NOTE_GS5,8, NOTE_GS5,8, NOTE_A5,8, NOTE_B5,8,
  
  NOTE_A5,8, NOTE_A5,8, NOTE_A5,8, NOTE_E5,8, REST,8, NOTE_D5,8, REST,8, NOTE_FS5,8, 
  REST,8, NOTE_FS5,8, REST,8, NOTE_FS5,8, NOTE_E5,8, NOTE_E5,8, NOTE_FS5,8, NOTE_E5,8,
};

Song takeOnMe = {
  140,
  takeOnMeMelody,
  sizeof(takeOnMeMelody)
};

int babyElephantMelody[] = {

  // Baby Elephant Walk
  // Score available at https://musescore.com/user/7965776/scores/1862611

  
  NOTE_C4,-8, NOTE_E4,16, NOTE_G4,8, NOTE_C5,8, NOTE_E5,8, NOTE_D5,8, NOTE_C5,8, NOTE_A4,8,
  NOTE_FS4,8, NOTE_G4,8, REST,4, REST,2,
  NOTE_C4,-8, NOTE_E4,16, NOTE_G4,8, NOTE_C5,8, NOTE_E5,8, NOTE_D5,8, NOTE_C5,8, NOTE_A4,8,
  NOTE_G4,-2, NOTE_A4,8, NOTE_DS4,1,
  
  NOTE_A4,8,
  NOTE_E4,8, NOTE_C4,8, REST,4, REST,2,
  NOTE_C4,-8, NOTE_E4,16, NOTE_G4,8, NOTE_C5,8, NOTE_E5,8, NOTE_D5,8, NOTE_C5,8, NOTE_A4,8,
  NOTE_FS4,8, NOTE_G4,8, REST,4, REST,4, REST,8, NOTE_G4,8,
  NOTE_D5,4, NOTE_D5,4, NOTE_B4,8, NOTE_G4,8, REST,8, NOTE_G4,8,
   
  NOTE_C5,4, NOTE_C5,4, NOTE_AS4,16, NOTE_C5,16, NOTE_AS4,16, NOTE_G4,16, NOTE_F4,8, NOTE_DS4,8,
  NOTE_FS4,4, NOTE_FS4,4, NOTE_F4,16, NOTE_G4,16, NOTE_F4,16, NOTE_DS4,16, NOTE_C4,8, NOTE_G4,8,
  NOTE_AS4,8, NOTE_C5,8, REST,4, REST,2,
};

Song babyElephant = {
  132,
  babyElephantMelody,
  sizeof(babyElephantMelody)
};

int tetrisMelody[] = {

  //Based on the arrangement at https://www.flutetunes.com/tunes.php?id=192
  
  NOTE_E5, 4,  NOTE_B4,8,  NOTE_C5,8,  NOTE_D5,4,  NOTE_C5,8,  NOTE_B4,8,
  NOTE_A4, 4,  NOTE_A4,8,  NOTE_C5,8,  NOTE_E5,4,  NOTE_D5,8,  NOTE_C5,8,
  NOTE_B4, -4,  NOTE_C5,8,  NOTE_D5,4,  NOTE_E5,4,
  NOTE_C5, 4,  NOTE_A4,4,  NOTE_A4,8,  NOTE_A4,4,  NOTE_B4,8,  NOTE_C5,8,

  NOTE_D5, -4,  NOTE_F5,8,  NOTE_A5,4,  NOTE_G5,8,  NOTE_F5,8,
  NOTE_E5, -4,  NOTE_C5,8,  NOTE_E5,4,  NOTE_D5,8,  NOTE_C5,8,
  NOTE_B4, 4,  NOTE_B4,8,  NOTE_C5,8,  NOTE_D5,4,  NOTE_E5,4,
  NOTE_C5, 4,  NOTE_A4,4,  NOTE_A4,4, REST, 4,

  NOTE_E5, 4,  NOTE_B4,8,  NOTE_C5,8,  NOTE_D5,4,  NOTE_C5,8,  NOTE_B4,8,
  NOTE_A4, 4,  NOTE_A4,8,  NOTE_C5,8,  NOTE_E5,4,  NOTE_D5,8,  NOTE_C5,8,
  NOTE_B4, -4,  NOTE_C5,8,  NOTE_D5,4,  NOTE_E5,4,
  NOTE_C5, 4,  NOTE_A4,4,  NOTE_A4,8,  NOTE_A4,4,  NOTE_B4,8,  NOTE_C5,8,

  NOTE_D5, -4,  NOTE_F5,8,  NOTE_A5,4,  NOTE_G5,8,  NOTE_F5,8,
  NOTE_E5, -4,  NOTE_C5,8,  NOTE_E5,4,  NOTE_D5,8,  NOTE_C5,8,
  NOTE_B4, 4,  NOTE_B4,8,  NOTE_C5,8,  NOTE_D5,4,  NOTE_E5,4,
  NOTE_C5, 4,  NOTE_A4,4,  NOTE_A4,4, REST, 4,
  

  NOTE_E5,2,  NOTE_C5,2,
  NOTE_D5,2,   NOTE_B4,2,
  NOTE_C5,2,   NOTE_A4,2,
  NOTE_GS4,2,  NOTE_B4,4,  REST,8, 
  NOTE_E5,2,   NOTE_C5,2,
  NOTE_D5,2,   NOTE_B4,2,
  NOTE_C5,4,   NOTE_E5,4,  NOTE_A5,2,
  NOTE_GS5,2,

};

Song tetris = {
  144,
  tetrisMelody,
  sizeof(tetrisMelody)
};

// notes of the moledy followed by the duration.
// a 4 means a quarter note, 8 an eighteenth , 16 sixteenth, so on
// !!negative numbers are used to represent dotted notes,
// so -4 means a dotted quarter note, that is, a quarter plus an eighteenth!!
int nokiaMelody[] = {

  // Nokia Ringtone 
  // Score available at https://musescore.com/user/29944637/scores/5266155
  
  NOTE_E5, 8, NOTE_D5, 8, NOTE_FS4, 4, NOTE_GS4, 4, 
  NOTE_CS5, 8, NOTE_B4, 8, NOTE_D4, 4, NOTE_E4, 4, 
  NOTE_B4, 8, NOTE_A4, 8, NOTE_CS4, 4, NOTE_E4, 4,
  NOTE_A4, 2, 
};

Song nokia = {
  180,
  nokiaMelody,
  sizeof(nokiaMelody)
};

int rickRollMelody[] = {

  // Never Gonna Give You Up - Rick Astley
  // Score available at https://musescore.com/chlorondria_5/never-gonna-give-you-up_alto-sax
  // Arranged by Chlorondria

  NOTE_D5,-4, NOTE_E5,-4, NOTE_A4,4, //1
  NOTE_E5,-4, NOTE_FS5,-4, NOTE_A5,16, NOTE_G5,16, NOTE_FS5,8,
  NOTE_D5,-4, NOTE_E5,-4, NOTE_A4,2,
  NOTE_A4,16, NOTE_A4,16, NOTE_B4,16, NOTE_D5,8, NOTE_D5,16,
  NOTE_D5,-4, NOTE_E5,-4, NOTE_A4,4, //repeat from 1
  NOTE_E5,-4, NOTE_FS5,-4, NOTE_A5,16, NOTE_G5,16, NOTE_FS5,8,
  NOTE_D5,-4, NOTE_E5,-4, NOTE_A4,2,
  NOTE_A4,16, NOTE_A4,16, NOTE_B4,16, NOTE_D5,8, NOTE_D5,16,
  REST,4, NOTE_B4,8, NOTE_CS5,8, NOTE_D5,8, NOTE_D5,8, NOTE_E5,8, NOTE_CS5,-8,
  NOTE_B4,16, NOTE_A4,2, REST,4, 

  REST,8, NOTE_B4,8, NOTE_B4,8, NOTE_CS5,8, NOTE_D5,8, NOTE_B4,4, NOTE_A4,8, //7
  NOTE_A5,8, REST,8, NOTE_A5,8, NOTE_E5,-4, REST,4, 
  NOTE_B4,8, NOTE_B4,8, NOTE_CS5,8, NOTE_D5,8, NOTE_B4,8, NOTE_D5,8, NOTE_E5,8, REST,8,
  REST,8, NOTE_CS5,8, NOTE_B4,8, NOTE_A4,-4, REST,4,
  REST,8, NOTE_B4,8, NOTE_B4,8, NOTE_CS5,8, NOTE_D5,8, NOTE_B4,8, NOTE_A4,4,
  NOTE_E5,8, NOTE_E5,8, NOTE_E5,8, NOTE_FS5,8, NOTE_E5,4, REST,4,
   
  NOTE_D5,2, NOTE_E5,8, NOTE_FS5,8, NOTE_D5,8, //13
  NOTE_E5,8, NOTE_E5,8, NOTE_E5,8, NOTE_FS5,8, NOTE_E5,4, NOTE_A4,4,
  REST,2, NOTE_B4,8, NOTE_CS5,8, NOTE_D5,8, NOTE_B4,8,
  REST,8, NOTE_E5,8, NOTE_FS5,8, NOTE_E5,-4, NOTE_A4,16, NOTE_B4,16, NOTE_D5,16, NOTE_B4,16,
  NOTE_FS5,-8, NOTE_FS5,-8, NOTE_E5,-4, NOTE_A4,16, NOTE_B4,16, NOTE_D5,16, NOTE_B4,16,

  NOTE_E5,-8, NOTE_E5,-8, NOTE_D5,-8, NOTE_CS5,16, NOTE_B4,-8, NOTE_A4,16, NOTE_B4,16, NOTE_D5,16, NOTE_B4,16, //18
  NOTE_D5,4, NOTE_E5,8, NOTE_CS5,-8, NOTE_B4,16, NOTE_A4,8, NOTE_A4,8, NOTE_A4,8, 
  NOTE_E5,4, NOTE_D5,2, NOTE_A4,16, NOTE_B4,16, NOTE_D5,16, NOTE_B4,16,
  NOTE_FS5,-8, NOTE_FS5,-8, NOTE_E5,-4, NOTE_A4,16, NOTE_B4,16, NOTE_D5,16, NOTE_B4,16,
  NOTE_A5,4, NOTE_CS5,8, NOTE_D5,-8, NOTE_CS5,16, NOTE_B4,8, NOTE_A4,16, NOTE_B4,16, NOTE_D5,16, NOTE_B4,16,

  NOTE_D5,4, NOTE_E5,8, NOTE_CS5,-8, NOTE_B4,16, NOTE_A4,4, NOTE_A4,8,  //23
  NOTE_E5,4, NOTE_D5,2, REST,4,
  REST,8, NOTE_B4,8, NOTE_D5,8, NOTE_B4,8, NOTE_D5,8, NOTE_E5,4, REST,8,
  REST,8, NOTE_CS5,8, NOTE_B4,8, NOTE_A4,-4, REST,4,
  REST,8, NOTE_B4,8, NOTE_B4,8, NOTE_CS5,8, NOTE_D5,8, NOTE_B4,8, NOTE_A4,4,
  REST,8, NOTE_A5,8, NOTE_A5,8, NOTE_E5,8, NOTE_FS5,8, NOTE_E5,8, NOTE_D5,8,
  
  REST,8, NOTE_A4,8, NOTE_B4,8, NOTE_CS5,8, NOTE_D5,8, NOTE_B4,8, //29
  REST,8, NOTE_CS5,8, NOTE_B4,8, NOTE_A4,-4, REST,4,
  NOTE_B4,8, NOTE_B4,8, NOTE_CS5,8, NOTE_D5,8, NOTE_B4,8, NOTE_A4,4, REST,8,
  REST,8, NOTE_E5,8, NOTE_E5,8, NOTE_FS5,4, NOTE_E5,-4, 
  NOTE_D5,2, NOTE_D5,8, NOTE_E5,8, NOTE_FS5,8, NOTE_E5,4, 
  NOTE_E5,8, NOTE_E5,8, NOTE_FS5,8, NOTE_E5,8, NOTE_A4,8, NOTE_A4,4,

  REST,-4, NOTE_A4,8, NOTE_B4,8, NOTE_CS5,8, NOTE_D5,8, NOTE_B4,8, //35
  REST,8, NOTE_E5,8, NOTE_FS5,8, NOTE_E5,-4, NOTE_A4,16, NOTE_B4,16, NOTE_D5,16, NOTE_B4,16,
  NOTE_FS5,-8, NOTE_FS5,-8, NOTE_E5,-4, NOTE_A4,16, NOTE_B4,16, NOTE_D5,16, NOTE_B4,16,
  NOTE_E5,-8, NOTE_E5,-8, NOTE_D5,-8, NOTE_CS5,16, NOTE_B4,8, NOTE_A4,16, NOTE_B4,16, NOTE_D5,16, NOTE_B4,16,
  NOTE_D5,4, NOTE_E5,8, NOTE_CS5,-8, NOTE_B4,16, NOTE_A4,4, NOTE_A4,8, 

   NOTE_E5,4, NOTE_D5,2, NOTE_A4,16, NOTE_B4,16, NOTE_D5,16, NOTE_B4,16, //40
  NOTE_FS5,-8, NOTE_FS5,-8, NOTE_E5,-4, NOTE_A4,16, NOTE_B4,16, NOTE_D5,16, NOTE_B4,16,
  NOTE_A5,4, NOTE_CS5,8, NOTE_D5,-8, NOTE_CS5,16, NOTE_B4,8, NOTE_A4,16, NOTE_B4,16, NOTE_D5,16, NOTE_B4,16,
  NOTE_D5,4, NOTE_E5,8, NOTE_CS5,-8, NOTE_B4,16, NOTE_A4,4, NOTE_A4,8,  
  NOTE_E5,4, NOTE_D5,2, NOTE_A4,16, NOTE_B4,16, NOTE_D5,16, NOTE_B4,16,
   
  NOTE_FS5,-8, NOTE_FS5,-8, NOTE_E5,-4, NOTE_A4,16, NOTE_B4,16, NOTE_D5,16, NOTE_B4,16, //45
  NOTE_A5,4, NOTE_CS5,8, NOTE_D5,-8, NOTE_CS5,16, NOTE_B4,8, NOTE_A4,16, NOTE_B4,16, NOTE_D5,16, NOTE_B4,16,
  NOTE_D5,4, NOTE_E5,8, NOTE_CS5,-8, NOTE_B4,16, NOTE_A4,4, NOTE_A4,8,  
  NOTE_E5,4, NOTE_D5,2, NOTE_A4,16, NOTE_B4,16, NOTE_D5,16, NOTE_B4,16,
  NOTE_FS5,-8, NOTE_FS5,-8, NOTE_E5,-4, NOTE_A4,16, NOTE_B4,16, NOTE_D5,16, NOTE_B4,16, //45
  
  NOTE_A5,4, NOTE_CS5,8, NOTE_D5,-8, NOTE_CS5,16, NOTE_B4,8, NOTE_A4,16, NOTE_B4,16, NOTE_D5,16, NOTE_B4,16,
  NOTE_D5,4, NOTE_E5,8, NOTE_CS5,-8, NOTE_B4,16, NOTE_A4,4, NOTE_A4,8, 

  NOTE_E5,4, NOTE_D5,2, REST,4
};

Song rickRoll = {
  114,
  rickRollMelody,
  sizeof(rickRollMelody)
};

int miiMelody[] = {
  
  // Mii Channel theme 
  // Score available at https://musescore.com/user/16403456/scores/4984153
  // Uploaded by Catalina Andrade 
  
  NOTE_FS4,8, REST,8, NOTE_A4,8, NOTE_CS5,8, REST,8,NOTE_A4,8, REST,8, NOTE_FS4,8, //1
  NOTE_D4,8, NOTE_D4,8, NOTE_D4,8, REST,8, REST,4, REST,8, NOTE_CS4,8,
  NOTE_D4,8, NOTE_FS4,8, NOTE_A4,8, NOTE_CS5,8, REST,8, NOTE_A4,8, REST,8, NOTE_F4,8,
  NOTE_E5,-4, NOTE_DS5,8, NOTE_D5,8, REST,8, REST,4,
  
  NOTE_GS4,8, REST,8, NOTE_CS5,8, NOTE_FS4,8, REST,8,NOTE_CS5,8, REST,8, NOTE_GS4,8, //5
  REST,8, NOTE_CS5,8, NOTE_G4,8, NOTE_FS4,8, REST,8, NOTE_E4,8, REST,8,
  NOTE_E4,8, NOTE_E4,8, NOTE_E4,8, REST,8, REST,4, NOTE_E4,8, NOTE_E4,8,
  NOTE_E4,8, REST,8, REST,4, NOTE_DS4,8, NOTE_D4,8, 

  NOTE_CS4,8, REST,8, NOTE_A4,8, NOTE_CS5,8, REST,8,NOTE_A4,8, REST,8, NOTE_FS4,8, //9
  NOTE_D4,8, NOTE_D4,8, NOTE_D4,8, REST,8, NOTE_E5,8, NOTE_E5,8, NOTE_E5,8, REST,8,
  REST,8, NOTE_FS4,8, NOTE_A4,8, NOTE_CS5,8, REST,8, NOTE_A4,8, REST,8, NOTE_F4,8,
  NOTE_E5,2, NOTE_D5,8, REST,8, REST,4,

  NOTE_B4,8, NOTE_G4,8, NOTE_D4,8, NOTE_CS4,4, NOTE_B4,8, NOTE_G4,8, NOTE_CS4,8, //13
  NOTE_A4,8, NOTE_FS4,8, NOTE_C4,8, NOTE_B3,4, NOTE_F4,8, NOTE_D4,8, NOTE_B3,8,
  NOTE_E4,8, NOTE_E4,8, NOTE_E4,8, REST,4, REST,4, NOTE_AS4,4,
  NOTE_CS5,8, NOTE_D5,8, NOTE_FS5,8, NOTE_A5,8, REST,8, REST,4, 

  REST,2, NOTE_A3,4, NOTE_AS3,4, //17 
  NOTE_A3,-4, NOTE_A3,8, NOTE_A3,2,
  REST,4, NOTE_A3,8, NOTE_AS3,8, NOTE_A3,8, NOTE_F4,4, NOTE_C4,8,
  NOTE_A3,-4, NOTE_A3,8, NOTE_A3,2,

  REST,2, NOTE_B3,4, NOTE_C4,4, //21
  NOTE_CS4,-4, NOTE_C4,8, NOTE_CS4,2,
  REST,4, NOTE_CS4,8, NOTE_C4,8, NOTE_CS4,8, NOTE_GS4,4, NOTE_DS4,8,
  NOTE_CS4,-4, NOTE_DS4,8, NOTE_B3,1,
  
  NOTE_E4,4, NOTE_E4,4, NOTE_E4,4, REST,8,//25

  //repeats 1-25

  NOTE_FS4,8, REST,8, NOTE_A4,8, NOTE_CS5,8, REST,8,NOTE_A4,8, REST,8, NOTE_FS4,8, //1
  NOTE_D4,8, NOTE_D4,8, NOTE_D4,8, REST,8, REST,4, REST,8, NOTE_CS4,8,
  NOTE_D4,8, NOTE_FS4,8, NOTE_A4,8, NOTE_CS5,8, REST,8, NOTE_A4,8, REST,8, NOTE_F4,8,
  NOTE_E5,-4, NOTE_DS5,8, NOTE_D5,8, REST,8, REST,4,
  
  NOTE_GS4,8, REST,8, NOTE_CS5,8, NOTE_FS4,8, REST,8,NOTE_CS5,8, REST,8, NOTE_GS4,8, //5
  REST,8, NOTE_CS5,8, NOTE_G4,8, NOTE_FS4,8, REST,8, NOTE_E4,8, REST,8,
  NOTE_E4,8, NOTE_E4,8, NOTE_E4,8, REST,8, REST,4, NOTE_E4,8, NOTE_E4,8,
  NOTE_E4,8, REST,8, REST,4, NOTE_DS4,8, NOTE_D4,8, 

  NOTE_CS4,8, REST,8, NOTE_A4,8, NOTE_CS5,8, REST,8,NOTE_A4,8, REST,8, NOTE_FS4,8, //9
  NOTE_D4,8, NOTE_D4,8, NOTE_D4,8, REST,8, NOTE_E5,8, NOTE_E5,8, NOTE_E5,8, REST,8,
  REST,8, NOTE_FS4,8, NOTE_A4,8, NOTE_CS5,8, REST,8, NOTE_A4,8, REST,8, NOTE_F4,8,
  NOTE_E5,2, NOTE_D5,8, REST,8, REST,4,

  NOTE_B4,8, NOTE_G4,8, NOTE_D4,8, NOTE_CS4,4, NOTE_B4,8, NOTE_G4,8, NOTE_CS4,8, //13
  NOTE_A4,8, NOTE_FS4,8, NOTE_C4,8, NOTE_B3,4, NOTE_F4,8, NOTE_D4,8, NOTE_B3,8,
  NOTE_E4,8, NOTE_E4,8, NOTE_E4,8, REST,4, REST,4, NOTE_AS4,4,
  NOTE_CS5,8, NOTE_D5,8, NOTE_FS5,8, NOTE_A5,8, REST,8, REST,4, 

  REST,2, NOTE_A3,4, NOTE_AS3,4, //17 
  NOTE_A3,-4, NOTE_A3,8, NOTE_A3,2,
  REST,4, NOTE_A3,8, NOTE_AS3,8, NOTE_A3,8, NOTE_F4,4, NOTE_C4,8,
  NOTE_A3,-4, NOTE_A3,8, NOTE_A3,2,

  REST,2, NOTE_B3,4, NOTE_C4,4, //21
  NOTE_CS4,-4, NOTE_C4,8, NOTE_CS4,2,
  REST,4, NOTE_CS4,8, NOTE_C4,8, NOTE_CS4,8, NOTE_GS4,4, NOTE_DS4,8,
  NOTE_CS4,-4, NOTE_DS4,8, NOTE_B3,1,
  
  NOTE_E4,4, NOTE_E4,4, NOTE_E4,4, REST,8,//25

  //finishes with 26
  //NOTE_FS4,8, REST,8, NOTE_A4,8, NOTE_CS5,8, REST,8, NOTE_A4,8, REST,8, NOTE_FS4,8
   
};

Song mii = {
  114,
  miiMelody,
  sizeof(miiMelody)
};

// notes of the moledy followed by the duration.
// a 4 means a quarter note, 8 an eighteenth , 16 sixteenth, so on
// !!negative numbers are used to represent dotted notes,
// so -4 means a dotted quarter note, that is, a quarter plus an eighteenth!!
int asaBrancaMelody[] = {

  // Asa branca - Luiz Gonzaga
  // Score available at https://musescore.com/user/190926/scores/181370

  NOTE_G4,8, NOTE_A4,8, NOTE_B4,4, NOTE_D5,4, NOTE_D5,4, NOTE_B4,4, 
  NOTE_C5,4, NOTE_C5,2, NOTE_G4,8, NOTE_A4,8,
  NOTE_B4,4, NOTE_D5,4, NOTE_D5,4, NOTE_C5,4,

  NOTE_B4,2, REST,8, NOTE_G4,8, NOTE_G4,8, NOTE_A4,8,
  NOTE_B4,4, NOTE_D5,4, REST,8, NOTE_D5,8, NOTE_C5,8, NOTE_B4,8,
  NOTE_G4,4, NOTE_C5,4, REST,8, NOTE_C5,8, NOTE_B4,8, NOTE_A4,8,

  NOTE_A4,4, NOTE_B4,4, REST,8, NOTE_B4,8, NOTE_A4,8, NOTE_G4,8,
  NOTE_G4,2, REST,8, NOTE_G4,8, NOTE_G4,8, NOTE_A4,8,
  NOTE_B4,4, NOTE_D5,4, REST,8, NOTE_D5,8, NOTE_C5,8, NOTE_B4,8,

  NOTE_G4,4, NOTE_C5,4, REST,8, NOTE_C5,8, NOTE_B4,8, NOTE_A4,8,
  NOTE_A4,4, NOTE_B4,4, REST,8, NOTE_B4,8, NOTE_A4,8, NOTE_G4,8,
  NOTE_G4,4, NOTE_F5,8, NOTE_D5,8, NOTE_E5,8, NOTE_C5,8, NOTE_D5,8, NOTE_B4,8,

  NOTE_C5,8, NOTE_A4,8, NOTE_B4,8, NOTE_G4,8, NOTE_A4,8, NOTE_G4,8, NOTE_E4,8, NOTE_G4,8,
  NOTE_G4,4, NOTE_F5,8, NOTE_D5,8, NOTE_E5,8, NOTE_C5,8, NOTE_D5,8, NOTE_B4,8,
  NOTE_C5,8, NOTE_A4,8, NOTE_B4,8, NOTE_G4,8, NOTE_A4,8, NOTE_G4,8, NOTE_E4,8, NOTE_G4,8,
  NOTE_G4,-2, REST,4
  
};

Song asaBranca = {
  120,
  asaBrancaMelody,
  sizeof(asaBrancaMelody)
};

int vampireMelody[] = {

  // Vamire Killer, from castlevania
  // Score available at https://musescore.com/user/28972071/scores/5425616
  // Theme starts at measure 6

  NOTE_E5,16, NOTE_E5,8, NOTE_D5,16, REST,16, NOTE_CS5,-4, NOTE_E4,8, NOTE_FS4,16, NOTE_G4,16, NOTE_A4,16,
  
  NOTE_B4,-8, NOTE_E4,-8, NOTE_B4,8, NOTE_A4,16, NOTE_D5,-4, //7
  NOTE_E5,16, NOTE_E5,8, NOTE_D5,16, REST,16, NOTE_CS5,-4, NOTE_E4,8, NOTE_FS4,16, NOTE_G4,16, NOTE_A4,16,
  NOTE_B4,-8, NOTE_E4,-8, NOTE_B4,8, NOTE_A4,16, NOTE_D4,-4,
  REST,8, NOTE_E5,8, REST,16, NOTE_B5,16, REST,8, NOTE_AS5,16, NOTE_B5,16, NOTE_AS5,16, NOTE_G5,16, REST,4,

  NOTE_B5,8, NOTE_B5,16, NOTE_AS5,16, REST,16, NOTE_AS5,16, NOTE_A5,16, REST,16, NOTE_B5,16, NOTE_G5,16, NOTE_B5,16, NOTE_AS5,16, REST,16, NOTE_B5,16, NOTE_A5,16, NOTE_G5,16,//11
  REST,8, NOTE_E5,8, REST,16, NOTE_B5,16, REST,8, NOTE_AS5,16, NOTE_B5,16, NOTE_AS5,16, NOTE_G5,16, REST,4,
  NOTE_B5,8, NOTE_B5,16, NOTE_AS5,16, REST,16, NOTE_AS5,16, NOTE_A5,16, REST,16, NOTE_B5,16, NOTE_G5,16, NOTE_B5,16, NOTE_AS5,16, REST,16, NOTE_B5,16, NOTE_A5,16, NOTE_G5,16,

  NOTE_DS4,-8, NOTE_FS4,-8, NOTE_C5,8, NOTE_B4,-8, NOTE_G4,-8, NOTE_E4,8, //14
  NOTE_DS4,-8, NOTE_FS4,-8, NOTE_C5,8, NOTE_B4,-8, NOTE_G4,-8, REST,8,
  NOTE_DS4,-8, NOTE_FS4,-8, NOTE_C5,8, NOTE_B4,-8, NOTE_G4,-8, NOTE_E4,8,
  NOTE_DS4,-8, NOTE_FS4,-8, NOTE_C5,8, NOTE_B4,-8, NOTE_CS5,-8, NOTE_DS5,8,

  NOTE_E5,16, NOTE_E5,16, NOTE_E4,16, NOTE_E4,-2,//18
  NOTE_C4,8, NOTE_C4,8, NOTE_E4,16, NOTE_G4,-8, NOTE_D4,8, NOTE_D4,8, NOTE_FS4,16, NOTE_A4,-8,
  NOTE_E5,16, NOTE_E5,16, NOTE_E4,16, NOTE_E4,-2,
  NOTE_C4,8, NOTE_C4,8, NOTE_E4,16, NOTE_G4,-8, NOTE_D4,8, NOTE_D4,8, NOTE_B3,16, NOTE_D4,-8,

  //repeats a second time

  NOTE_E5,16, NOTE_E5,8, NOTE_D5,16, REST,16, NOTE_CS5,-4, NOTE_E4,8, NOTE_FS4,16, NOTE_G4,16, NOTE_A4,16,
  
  NOTE_B4,-8, NOTE_E4,-8, NOTE_B4,8, NOTE_A4,16, NOTE_D5,-4, //7
  NOTE_E5,16, NOTE_E5,8, NOTE_D5,16, REST,16, NOTE_CS5,-4, NOTE_E4,8, NOTE_FS4,16, NOTE_G4,16, NOTE_A4,16,
  NOTE_B4,-8, NOTE_E4,-8, NOTE_B4,8, NOTE_A4,16, NOTE_D4,-4,
  REST,8, NOTE_E5,8, REST,16, NOTE_B5,16, REST,8, NOTE_AS5,16, NOTE_B5,16, NOTE_AS5,16, NOTE_G5,16, REST,4,

  NOTE_B5,8, NOTE_B5,16, NOTE_AS5,16, REST,16, NOTE_AS5,16, NOTE_A5,16, REST,16, NOTE_B5,16, NOTE_G5,16, NOTE_B5,16, NOTE_AS5,16, REST,16, NOTE_B5,16, NOTE_A5,16, NOTE_G5,16,//11
  REST,8, NOTE_E5,8, REST,16, NOTE_B5,16, REST,8, NOTE_AS5,16, NOTE_B5,16, NOTE_AS5,16, NOTE_G5,16, REST,4,
  NOTE_B5,8, NOTE_B5,16, NOTE_AS5,16, REST,16, NOTE_AS5,16, NOTE_A5,16, REST,16, NOTE_B5,16, NOTE_G5,16, NOTE_B5,16, NOTE_AS5,16, REST,16, NOTE_B5,16, NOTE_A5,16, NOTE_G5,16,

  NOTE_DS4,-8, NOTE_FS4,-8, NOTE_C5,8, NOTE_B4,-8, NOTE_G4,-8, NOTE_E4,8, //14
  NOTE_DS4,-8, NOTE_FS4,-8, NOTE_C5,8, NOTE_B4,-8, NOTE_G4,-8, REST,8,
  NOTE_DS4,-8, NOTE_FS4,-8, NOTE_C5,8, NOTE_B4,-8, NOTE_G4,-8, NOTE_E4,8,
  NOTE_DS4,-8, NOTE_FS4,-8, NOTE_C5,8, NOTE_B4,-8, NOTE_CS5,-8, NOTE_DS5,8,

  NOTE_E5,16, NOTE_E5,16, NOTE_E4,16, NOTE_E4,-2,//18
  NOTE_C4,8, NOTE_C4,8, NOTE_E4,16, NOTE_G4,-8, NOTE_D4,8, NOTE_D4,8, NOTE_FS4,16, NOTE_A4,-8,
  NOTE_E5,16, NOTE_E5,16, NOTE_E4,16, NOTE_E4,-2,
  NOTE_C4,8, NOTE_C4,8, NOTE_E4,16, NOTE_G4,-8, NOTE_D4,8, NOTE_D4,8, NOTE_B3,16, NOTE_D4,-8,
  
};

Song vampire = {
  130,
  vampireMelody,
  sizeof(vampireMelody)
};

int pacmanMelody[] = {

  // Pacman
  // Score available at https://musescore.com/user/85429/scores/107109
  NOTE_B4, 16, NOTE_B5, 16, NOTE_FS5, 16, NOTE_DS5, 16, //1
  NOTE_B5, 32, NOTE_FS5, -16, NOTE_DS5, 8, NOTE_C5, 16,
  NOTE_C6, 16, NOTE_G6, 16, NOTE_E6, 16, NOTE_C6, 32, NOTE_G6, -16, NOTE_E6, 8,

  NOTE_B4, 16,  NOTE_B5, 16,  NOTE_FS5, 16,   NOTE_DS5, 16,  NOTE_B5, 32,  //2
  NOTE_FS5, -16, NOTE_DS5, 8,  NOTE_DS5, 32, NOTE_E5, 32,  NOTE_F5, 32,
  NOTE_F5, 32,  NOTE_FS5, 32,  NOTE_G5, 32,  NOTE_G5, 32, NOTE_GS5, 32,  NOTE_A5, 16, NOTE_B5, 8
};

Song pacman = {
  105,
  pacmanMelody,
  sizeof(pacmanMelody)
};

int jigglyMelody[] = {

  // Jigglypuff's Song
  // Score available at https://musescore.com/user/28109683/scores/5044153
  
  NOTE_D5,-4, NOTE_A5,8, NOTE_FS5,8, NOTE_D5,8,
  NOTE_E5,-4, NOTE_FS5,8, NOTE_G5,4,
  NOTE_FS5,-4, NOTE_E5,8, NOTE_FS5,4,
  NOTE_D5,-2,
  NOTE_D5,-4, NOTE_A5,8, NOTE_FS5,8, NOTE_D5,8,
  NOTE_E5,-4, NOTE_FS5,8, NOTE_G5,4,
  NOTE_FS5,-1,
  NOTE_D5,-4, NOTE_A5,8, NOTE_FS5,8, NOTE_D5,8,
  NOTE_E5,-4, NOTE_FS5,8, NOTE_G5,4,
  
  NOTE_FS5,-4, NOTE_E5,8, NOTE_FS5,4,
  NOTE_D5,-2,
  NOTE_D5,-4, NOTE_A5,8, NOTE_FS5,8, NOTE_D5,8,
  NOTE_E5,-4, NOTE_FS5,8, NOTE_G5,4,
  NOTE_FS5,-1,
  
};

Song jiggly = {
  85,
  jigglyMelody,
  sizeof(jigglyMelody)
};

Song songs[] = {
  takeOnMe,
  babyElephant,
  tetris,
  nokia,
  rickRoll,
  mii,
  asaBranca,
  vampire,
  pacman,
  jiggly
};

int songIndex;

Chrono buzzerChrono;
int buzzerPosition = 0;

// change this to whichever pin you want to use
int buzzer = 14;

bool isPlayingNote = false;

int noteDuration;

void BuzzerSetup() {
  songIndex = random(sizeof(songs)/sizeof(songs[0]));
}

void BuzzerControlLoop() {
  int tempo = songs[songIndex].tempo;
  int wholenote = (60000 * 4) / tempo;
  int* melody = songs[songIndex].melody;
  int melodySize = songs[songIndex].melodySize;
  int notes = melodySize / sizeof(melody[0]) / 2;

  if (buzzerPosition == notes * 2) {
    // song is done
    songIndex = random(sizeof(songs)/sizeof(songs[0]));

    buzzerPosition = 0;
  }
  else {
    if (!isPlayingNote) {
      // calculates the duration of each note
      int divider = melody[buzzerPosition + 1];
      if (divider > 0) {
        // regular note, just proceed
        noteDuration = (wholenote) / divider;
      } else if (divider < 0) {
        // dotted notes are represented with negative durations!!
        noteDuration = (wholenote) / abs(divider);
        noteDuration *= 1.5; // increases the duration in half for dotted notes
      }
  
      // we only play the note for 90% of the duration, leaving 10% as a pause
      tone(buzzer, melody[buzzerPosition]);
      isPlayingNote = true;
    }
    if (isPlayingNote && buzzerChrono.hasPassed(noteDuration)) {
      buzzerChrono.restart();
      isPlayingNote = false;
      noTone(buzzer);
      buzzerPosition = buzzerPosition + 2;
    }
  }
}
